<mxfile host="app.diagrams.net" agent="Mozilla/5.0 (Windows NT 10.0; Win64; x64; rv:109.0) Gecko/20100101 Firefox/109.0" version="27.1.6">
  <diagram name="PÃ¡gina-1" id="BKnsedUX9qdCjatulcZ2">
    <mxGraphModel dx="1416" dy="744" grid="1" gridSize="10" guides="1" tooltips="1" connect="1" arrows="1" fold="1" page="1" pageScale="1" pageWidth="827" pageHeight="1169" math="0" shadow="0">
      <root>
        <mxCell id="0" />
        <mxCell id="1" parent="0" />
        <mxCell id="XpTC-aLq-jgEFeij10SL-21" value="Cliente" style="swimlane;childLayout=stackLayout;horizontal=1;startSize=50;horizontalStack=0;rounded=1;fontSize=14;fontStyle=0;strokeWidth=2;resizeParent=0;resizeLast=1;shadow=0;dashed=0;align=center;arcSize=4;whiteSpace=wrap;html=1;" vertex="1" parent="1">
          <mxGeometry x="40" y="400" width="231" height="280" as="geometry" />
        </mxCell>
        <mxCell id="XpTC-aLq-jgEFeij10SL-22" value="&lt;div&gt;- nome : String&lt;/div&gt;&lt;div&gt;- tipo_de_carne : String&lt;/div&gt;&lt;div&gt;- unidades: int&lt;/div&gt;&lt;div&gt;- peso : Double&lt;/div&gt;&lt;div&gt;- produto : Produto&lt;br&gt;&lt;/div&gt;&lt;div&gt;+ adicionar_exportacao():boolean&lt;/div&gt;&lt;div&gt;+ adicionar_produto():boolean&lt;br&gt;&lt;/div&gt;&lt;div&gt;&lt;br&gt;&lt;/div&gt;" style="align=left;strokeColor=none;fillColor=none;spacingLeft=4;spacingRight=4;fontSize=12;verticalAlign=top;resizable=0;rotatable=0;part=1;html=1;whiteSpace=wrap;" vertex="1" parent="XpTC-aLq-jgEFeij10SL-21">
          <mxGeometry y="50" width="231" height="230" as="geometry" />
        </mxCell>
        <mxCell id="XpTC-aLq-jgEFeij10SL-23" value="Adiministrador" style="swimlane;childLayout=stackLayout;horizontal=1;startSize=50;horizontalStack=0;rounded=1;fontSize=14;fontStyle=0;strokeWidth=2;resizeParent=0;resizeLast=1;shadow=0;dashed=0;align=center;arcSize=4;whiteSpace=wrap;html=1;" vertex="1" parent="1">
          <mxGeometry x="40" y="820" width="231" height="270" as="geometry" />
        </mxCell>
        <mxCell id="XpTC-aLq-jgEFeij10SL-24" value="&lt;div&gt;- id : int&lt;/div&gt;&lt;div&gt;- nome_usuario : String&lt;/div&gt;&lt;div&gt;- senha : String&lt;/div&gt;&lt;div&gt;+ adicionar_cliente():boolean&lt;/div&gt;&lt;div&gt;+ listar_exportacao()&lt;/div&gt;&lt;div&gt;+ editar_exportacao(id)&lt;/div&gt;" style="align=left;strokeColor=none;fillColor=none;spacingLeft=4;spacingRight=4;fontSize=12;verticalAlign=top;resizable=0;rotatable=0;part=1;html=1;whiteSpace=wrap;" vertex="1" parent="XpTC-aLq-jgEFeij10SL-23">
          <mxGeometry y="50" width="231" height="220" as="geometry" />
        </mxCell>
        <mxCell id="XpTC-aLq-jgEFeij10SL-25" value="Exportacao" style="swimlane;childLayout=stackLayout;horizontal=1;startSize=50;horizontalStack=0;rounded=1;fontSize=14;fontStyle=0;strokeWidth=2;resizeParent=0;resizeLast=1;shadow=0;dashed=0;align=center;arcSize=4;whiteSpace=wrap;html=1;" vertex="1" parent="1">
          <mxGeometry x="480" y="400" width="230" height="270" as="geometry" />
        </mxCell>
        <mxCell id="XpTC-aLq-jgEFeij10SL-26" value="&lt;div&gt;~ id : int&lt;/div&gt;&lt;div&gt;- transporte : Transporte&lt;/div&gt;&lt;div&gt;- origem : String&lt;/div&gt;&lt;div&gt;- destino : String&lt;/div&gt;&lt;div&gt;- data_da_importacao : Date&lt;/div&gt;&lt;div&gt;- data_da_exportacao : Date&lt;/div&gt;&lt;div&gt;- status_concluido : boolean&lt;/div&gt;&lt;div&gt;- cliente : Cliente&lt;/div&gt;&lt;div&gt;&lt;br&gt;&lt;/div&gt;&lt;div&gt;&lt;br&gt;&lt;/div&gt;&lt;div&gt;&lt;br&gt;&lt;/div&gt;&lt;div&gt;&lt;br&gt;&lt;/div&gt;" style="align=left;strokeColor=none;fillColor=none;spacingLeft=4;spacingRight=4;fontSize=12;verticalAlign=top;resizable=0;rotatable=0;part=1;html=1;whiteSpace=wrap;" vertex="1" parent="XpTC-aLq-jgEFeij10SL-25">
          <mxGeometry y="50" width="230" height="220" as="geometry" />
        </mxCell>
        <mxCell id="XpTC-aLq-jgEFeij10SL-27" value="" style="edgeStyle=entityRelationEdgeStyle;fontSize=12;html=1;endArrow=ERoneToMany;rounded=0;exitX=1;exitY=0.082;exitDx=0;exitDy=0;exitPerimeter=0;entryX=-0.017;entryY=0.085;entryDx=0;entryDy=0;entryPerimeter=0;" edge="1" parent="1" source="XpTC-aLq-jgEFeij10SL-21" target="XpTC-aLq-jgEFeij10SL-25">
          <mxGeometry width="100" height="100" relative="1" as="geometry">
            <mxPoint x="360" y="650" as="sourcePoint" />
            <mxPoint x="460" y="550" as="targetPoint" />
          </mxGeometry>
        </mxCell>
        <mxCell id="XpTC-aLq-jgEFeij10SL-28" value="" style="curved=1;endArrow=classic;html=1;rounded=0;entryX=0.5;entryY=1;entryDx=0;entryDy=0;exitX=0.476;exitY=0;exitDx=0;exitDy=0;exitPerimeter=0;" edge="1" parent="1" source="XpTC-aLq-jgEFeij10SL-23" target="XpTC-aLq-jgEFeij10SL-21">
          <mxGeometry width="50" height="50" relative="1" as="geometry">
            <mxPoint x="130.5" y="780" as="sourcePoint" />
            <mxPoint x="180.5" y="730" as="targetPoint" />
            <Array as="points">
              <mxPoint x="180.5" y="780" />
              <mxPoint x="130.5" y="730" />
            </Array>
          </mxGeometry>
        </mxCell>
        <mxCell id="XpTC-aLq-jgEFeij10SL-29" value="" style="endArrow=classic;startArrow=classic;html=1;rounded=0;entryX=0.47;entryY=1;entryDx=0;entryDy=0;entryPerimeter=0;edgeStyle=orthogonalEdgeStyle;curved=1;" edge="1" parent="1" target="XpTC-aLq-jgEFeij10SL-26">
          <mxGeometry width="50" height="50" relative="1" as="geometry">
            <mxPoint x="270" y="940" as="sourcePoint" />
            <mxPoint x="440" y="730" as="targetPoint" />
          </mxGeometry>
        </mxCell>
        <mxCell id="XpTC-aLq-jgEFeij10SL-30" value="Produto" style="swimlane;childLayout=stackLayout;horizontal=1;startSize=50;horizontalStack=0;rounded=1;fontSize=14;fontStyle=0;strokeWidth=2;resizeParent=0;resizeLast=1;shadow=0;dashed=0;align=center;arcSize=4;whiteSpace=wrap;html=1;" vertex="1" parent="1">
          <mxGeometry x="60.5" y="130" width="190" height="160" as="geometry" />
        </mxCell>
        <mxCell id="XpTC-aLq-jgEFeij10SL-31" value="&lt;div&gt;- tipo_de_carne : String&lt;/div&gt;&lt;div&gt;- unidades: int&lt;/div&gt;&lt;div&gt;- peso : Double&lt;/div&gt;&lt;div&gt;&lt;br&gt;&lt;/div&gt;" style="align=left;strokeColor=none;fillColor=none;spacingLeft=4;spacingRight=4;fontSize=12;verticalAlign=top;resizable=0;rotatable=0;part=1;html=1;whiteSpace=wrap;" vertex="1" parent="XpTC-aLq-jgEFeij10SL-30">
          <mxGeometry y="50" width="190" height="110" as="geometry" />
        </mxCell>
        <mxCell id="XpTC-aLq-jgEFeij10SL-34" value="" style="fontSize=12;html=1;endArrow=ERoneToMany;rounded=0;exitX=0.5;exitY=0;exitDx=0;exitDy=0;entryX=0.424;entryY=1.009;entryDx=0;entryDy=0;entryPerimeter=0;" edge="1" parent="1" source="XpTC-aLq-jgEFeij10SL-21" target="XpTC-aLq-jgEFeij10SL-31">
          <mxGeometry width="100" height="100" relative="1" as="geometry">
            <mxPoint x="470" y="510" as="sourcePoint" />
            <mxPoint x="570" y="410" as="targetPoint" />
          </mxGeometry>
        </mxCell>
        <mxCell id="XpTC-aLq-jgEFeij10SL-35" value="Transporte" style="swimlane;childLayout=stackLayout;horizontal=1;startSize=50;horizontalStack=0;rounded=1;fontSize=14;fontStyle=0;strokeWidth=2;resizeParent=0;resizeLast=1;shadow=0;dashed=0;align=center;arcSize=4;whiteSpace=wrap;html=1;" vertex="1" parent="1">
          <mxGeometry x="480" y="60" width="230" height="270" as="geometry" />
        </mxCell>
        <mxCell id="XpTC-aLq-jgEFeij10SL-36" value="&lt;div&gt;~ id_motorista : int&lt;/div&gt;&lt;div&gt;- motorista : String&lt;/div&gt;&lt;div&gt;- cnh : String&lt;br&gt;&lt;/div&gt;&lt;div&gt;- placa : String&lt;/div&gt;&lt;div&gt;- temperatura : double&lt;/div&gt;&lt;div&gt;- camera : [ ]&lt;/div&gt;&lt;div&gt;&lt;br&gt;&lt;/div&gt;&lt;div&gt;&lt;br&gt;&lt;/div&gt;&lt;div&gt;&lt;br&gt;&lt;/div&gt;&lt;div&gt;&lt;br&gt;&lt;/div&gt;" style="align=left;strokeColor=none;fillColor=none;spacingLeft=4;spacingRight=4;fontSize=12;verticalAlign=top;resizable=0;rotatable=0;part=1;html=1;whiteSpace=wrap;" vertex="1" parent="XpTC-aLq-jgEFeij10SL-35">
          <mxGeometry y="50" width="230" height="220" as="geometry" />
        </mxCell>
        <mxCell id="XpTC-aLq-jgEFeij10SL-38" value="" style="fontSize=12;html=1;endArrow=ERmandOne;startArrow=ERmandOne;rounded=0;entryX=0.47;entryY=1.005;entryDx=0;entryDy=0;entryPerimeter=0;exitX=0.439;exitY=-0.004;exitDx=0;exitDy=0;exitPerimeter=0;" edge="1" parent="1" source="XpTC-aLq-jgEFeij10SL-25" target="XpTC-aLq-jgEFeij10SL-36">
          <mxGeometry width="100" height="100" relative="1" as="geometry">
            <mxPoint x="470" y="420" as="sourcePoint" />
            <mxPoint x="570" y="320" as="targetPoint" />
          </mxGeometry>
        </mxCell>
      </root>
    </mxGraphModel>
  </diagram>
</mxfile>
